<svg width="414" height="68" viewBox="0 0 414 68" fill="none" xmlns="http://www.w3.org/2000/svg">
<path d="M155.518 0C159.36 0.981626 163.839 2.81366 167.167 6.23535C170.144 8.77056 172.142 10.651 173.594 12.1299C176.783 15.3785 177.339 16.6915 179.854 18.7607C193.768 30.2069 204.503 29.9591 206.25 29.832C207.997 29.9591 218.732 30.2069 232.646 18.7607C235.161 16.6915 235.717 15.3785 238.906 12.1299C240.358 10.651 242.356 8.77056 245.333 6.23535C248.661 2.81366 253.14 0.981626 256.982 0H413C413.552 4.31648e-06 414 0.447718 414 1V67C414 67.5523 413.552 68 413 68H1C0.447719 68 2.01335e-09 67.5523 0 67V1C5.15408e-07 0.447716 0.447716 0 1 0H155.518Z" fill="#D9D9D9"/>
</svg>
