<svg width="414" height="80" viewBox="0 0 414 80" fill="none" xmlns="http://www.w3.org/2000/svg">
<path d="M156.266 0C159.931 1.02374 164.053 2.83328 167.167 6.03516C170.144 8.57054 172.142 10.4507 173.594 11.9297C176.783 15.1786 177.339 16.4921 179.854 18.5615C193.768 30.0078 204.503 29.7589 206.25 29.6318C207.997 29.7589 218.732 30.0078 232.646 18.5615C235.161 16.4921 235.717 15.1786 238.906 11.9297C240.358 10.4507 242.356 8.57054 245.333 6.03516C248.447 2.83328 252.569 1.02374 256.234 0H413C413.552 4.31648e-06 414 0.447718 414 1V79C414 79.5523 413.552 80 413 80H1C0.447719 80 8.05337e-09 79.5523 0 79V1C0 0.447715 0.447715 0 1 0H156.266Z" fill="#D9D9D9"/>
</svg>
